<svg width="52" height="52" viewBox="0 0 52 52" fill="none" xmlns="http://www.w3.org/2000/svg">
<rect x="51.5" y="51.5" width="51" height="51" rx="25.5" transform="rotate(-180 51.5 51.5)" fill="white"/>
<rect x="51.5" y="51.5" width="51" height="51" rx="25.5" transform="rotate(-180 51.5 51.5)" stroke="#E0DBF0"/>
<path d="M18.1464 25.6464C17.9512 25.8417 17.9512 26.1583 18.1464 26.3536L21.3284 29.5355C21.5237 29.7308 21.8403 29.7308 22.0355 29.5355C22.2308 29.3403 22.2308 29.0237 22.0355 28.8284L19.2071 26L22.0355 23.1716C22.2308 22.9763 22.2308 22.6597 22.0355 22.4645C21.8403 22.2692 21.5237 22.2692 21.3284 22.4645L18.1464 25.6464ZM34 25.5L18.5 25.5L18.5 26.5L34 26.5L34 25.5Z" fill="black"/>
</svg>
