<svg width="54" height="54" viewBox="0 0 54 54" fill="none" xmlns="http://www.w3.org/2000/svg">
<rect width="54" height="54" rx="27" fill="white"/>
<circle cx="37" cy="17" r="6" fill="url(#paint0_linear_53_188)"/>
<path d="M15.4286 21.8571V31.4286C15.4286 32.5331 16.324 33.4286 17.4286 33.4286H34C35.1046 33.4286 36 32.5331 36 31.4286V21.8571M15.4286 21.8571V20C15.4286 18.8954 16.324 18 17.4286 18H34C35.1046 18 36 18.8954 36 20V21.8571M15.4286 21.8571H36" stroke="black"/>
<path d="M23.1429 24.4286L21.2786 26.2929C20.8881 26.6834 20.8881 27.3166 21.2786 27.7071L23.1429 29.5714" stroke="black" stroke-linecap="round"/>
<path d="M28.2857 29.5714L30.1501 27.7071C30.5406 27.3166 30.5406 26.6834 30.1501 26.2929L28.2857 24.4286" stroke="black" stroke-linecap="round"/>
<path d="M18 22.5714C18 21.4668 18.8954 20.5714 20 20.5714H36.5714C37.676 20.5714 38.5714 21.4668 38.5714 22.5714V24.4286V34C38.5714 35.1046 37.676 36 36.5714 36H20C18.8954 36 18 35.1046 18 34V24.4286V22.5714Z" fill="white"/>
<path d="M18 24.4286V34C18 35.1046 18.8954 36 20 36H36.5714C37.676 36 38.5714 35.1046 38.5714 34V24.4286M18 24.4286V22.5714C18 21.4668 18.8954 20.5714 20 20.5714H36.5714C37.676 20.5714 38.5714 21.4668 38.5714 22.5714V24.4286M18 24.4286H38.5714" stroke="black"/>
<path d="M25.7143 27L23.85 28.8643C23.4595 29.2548 23.4595 29.888 23.85 30.2785L25.7143 32.1429" stroke="black" stroke-linecap="round"/>
<path d="M30.8572 32.1428L32.7215 30.2785C33.112 29.888 33.112 29.2548 32.7215 28.8643L30.8572 27" stroke="black" stroke-linecap="round"/>
<defs>
<linearGradient id="paint0_linear_53_188" x1="27.3163" y1="8.55555" x2="50.8064" y2="15.6681" gradientUnits="userSpaceOnUse">
<stop stop-color="#66DAFF"/>
<stop offset="0.4625" stop-color="#955BEC"/>
<stop offset="1" stop-color="#FC63FF"/>
</linearGradient>
</defs>
</svg>
